<?xml version="1.0" encoding="UTF-8" standalone="no"?>
<svg
   xmlns:dc="http://purl.org/dc/elements/1.1/"
   xmlns:cc="http://creativecommons.org/ns#"
   xmlns:rdf="http://www.w3.org/1999/02/22-rdf-syntax-ns#"
   xmlns:svg="http://www.w3.org/2000/svg"
   xmlns="http://www.w3.org/2000/svg"
   id="svg10"
   version="1.1"
   viewBox="0 0 30 30"
   height="30"
   width="30">
  <metadata
     id="metadata16">
    <rdf:RDF>
      <cc:Work
         rdf:about="">
        <dc:format>image/svg+xml</dc:format>
        <dc:type
           rdf:resource="http://purl.org/dc/dcmitype/StillImage" />
        <dc:title></dc:title>
      </cc:Work>
    </rdf:RDF>
  </metadata>
  <defs
     id="defs14" />
  <g
     transform="translate(0,1.0130065)"
     style="fill:#9facbd"
     id="g8">
    <path
       id="path2"
       d="M 25.9,22.5 H 4.1 C 2.4,22.5 1,21.1 1,19.4 V 12.5 C 1,12.2 1.2,12 1.5,12 1.8,12 2,12.2 2,12.5 v 6.9 c 0,1.1 0.9,2.1 2.1,2.1 H 26 c 1.1,0 2.1,-0.9 2.1,-2.1 v -6.9 c 0,-0.3 0.2,-0.5 0.5,-0.5 0.3,0 0.5,0.2 0.5,0.5 v 6.9 c -0.1,1.7 -1.5,3.1 -3.2,3.1 z m -2.4,5 H 6.5 C 6.2,27.5 6,27.3 6,27 6,25.6 7.4,24.5 9.1,24.5 h 11.8 c 1.7,0 3.1,1.1 3.1,2.5 0,0.3 -0.2,0.5 -0.5,0.5 z m -16.4,-1 h 15.7 c -0.3,-0.6 -1.1,-1 -2,-1 H 9.1 c -0.9,0 -1.7,0.4 -2,1 z" />
    <path
       id="path4"
       d="M 28.5,19.5 H 1.5 C 1.2,19.5 1,19.3 1,19 1,18.7 1.2,18.5 1.5,18.5 h 27 c 0.3,0 0.5,0.2 0.5,0.5 0,0.3 -0.2,0.5 -0.5,0.5 z M 16.5,25 C 16.2,25 16,24.8 16,24.5 V 22 c 0,-0.3 0.2,-0.5 0.5,-0.5 0.3,0 0.5,0.2 0.5,0.5 v 2.5 c 0,0.3 -0.2,0.5 -0.5,0.5 z m -3,0 C 13.2,25 13,24.8 13,24.5 V 22 c 0,-0.3 0.2,-0.5 0.5,-0.5 0.3,0 0.5,0.2 0.5,0.5 v 2.5 c 0,0.3 -0.2,0.5 -0.5,0.5 z m 7.3,-11.5 c -1.2,0 -2.3,-0.6 -2.9,-1.6 -0.6,0.9 -1.7,1.6 -2.9,1.6 -1.2,0 -2.3,-0.6 -2.9,-1.6 -0.6,0.9 -1.7,1.6 -2.9,1.6 C 8,13.5 6.9,12.9 6.3,11.9 6.1,12.2 5.9,12.5 5.6,12.7 4.8,13.4 3.7,13.6 2.6,13.4 1.1,13.1 0,11.7 0,10.1 0,9.6 0.2,9 0.5,8.6 L 4.4,1.9 C 4.9,1 5.9,0.5 6.9,0.5 h 16.2 c 1,0 1.9,0.5 2.5,1.3 l 3.9,6.8 c 0.3,0.4 0.5,1 0.5,1.5 v 1.2 c 0,1.6 -1.1,1.8 -2.2,2.1 l -0.4,0.1 c -1.1,0.2 -2.2,0 -3,-0.7 -0.3,-0.2 -0.5,-0.5 -0.7,-0.8 -0.6,0.9 -1.7,1.5 -2.9,1.5 z m -2.4,-3.3 c 0,1.3 1.1,2.3 2.4,2.3 1.3,0 2.4,-1 2.4,-2.3 0,-0.3 0.2,-0.5 0.5,-0.5 0.3,0 0.5,0.2 0.5,0.5 0,0.7 0.3,1.3 0.8,1.7 0.6,0.5 1.4,0.6 2.1,0.5 l 0.4,-0.1 c 1.2,-0.3 1.4,-0.4 1.4,-1.1 V 10 C 28.9,9.7 28.8,9.3 28.6,9 L 24.7,2.2 C 24.3,1.7 23.7,1.4 23,1.4 H 6.9 C 6.2,1.4 5.6,1.7 5.2,2.3 L 1.3,9 c 0,0 0,0 0,0 C 1.1,9.3 1,9.6 1,10 c 0,1.1 0.8,2.1 1.8,2.4 0.8,0.2 1.6,0 2.1,-0.5 0.5,-0.4 0.8,-1.1 0.8,-1.7 0,-0.3 0.2,-0.5 0.5,-0.5 0.3,0 0.5,0.2 0.5,0.5 0,1.3 1.1,2.3 2.4,2.3 1.3,0 2.4,-1 2.4,-2.3 0,-0.3 0.2,-0.5 0.5,-0.5 0.3,0 0.5,0.2 0.5,0.5 0,1.3 1.1,2.3 2.4,2.3 1.3,0 2.4,-1 2.4,-2.3 0,-0.3 0.2,-0.5 0.5,-0.5 0.3,0 0.6,0.3 0.6,0.5 z" />
    <path
       id="path6"
       d="m 6.3,10.7 c -0.1,0 -0.1,0 -0.2,0 C 5.8,10.6 5.7,10.3 5.8,10.1 l 3,-9.2 C 8.9,0.6 9.2,0.5 9.4,0.6 9.7,0.7 9.8,1 9.7,1.2 l -3,9.2 c 0,0.2 -0.2,0.3 -0.4,0.3 z m 5.8,0 c 0,0 0,0 0,0 -0.3,0 -0.5,-0.3 -0.5,-0.6 l 1,-9.2 c 0,-0.3 0.3,-0.5 0.6,-0.4 0.3,0 0.5,0.3 0.4,0.6 l -1,9.2 c 0,0.2 -0.2,0.4 -0.5,0.4 z m 5.8,0 c -0.3,0 -0.5,-0.2 -0.5,-0.4 l -1,-9.2 c 0,-0.3 0.2,-0.5 0.4,-0.6 0.3,0 0.5,0.2 0.6,0.4 l 1,9.2 c 0,0.4 -0.2,0.6 -0.5,0.6 0,0 0,0 0,0 z m 5.8,0 c -0.2,0 -0.4,-0.1 -0.5,-0.3 l -3,-9.2 C 20.1,0.9 20.3,0.7 20.5,0.6 20.8,0.5 21,0.7 21.1,0.9 l 3,9.2 c 0.1,0.3 -0.1,0.5 -0.3,0.6 0,0 0,0 -0.1,0 z" />
  </g>
</svg>
