<svg xmlns="http://www.w3.org/2000/svg" width="30" height="30" viewBox="0 0 30 30">
  <g fill="#9FACBD">
    <path d="M15 15C14.9 15 14.9 15 14.8 15 14.6 14.9 14.5 14.7 14.5 14.5L14.5 2.5C14.5 2.2 14.7 2 15 2 15.3 2 15.5 2.2 15.5 2.5L15.5 13.4 20.7 9.1C20.9 8.9 21.2 8.9 21.4 9.2 21.6 9.4 21.5 9.7 21.3 9.9L15.3 14.9C15.2 15 15.1 15 15 15zM18 23C17.7 23 17.5 22.8 17.5 22.5L17.5 22 15 22C14.8 22 14.6 21.9 14.6 21.7 14.6 21.5 14.5 21.3 14.6 21.2L17.6 17.2C17.8 17 18.1 16.9 18.3 17.1 18.5 17.3 18.6 17.6 18.4 17.8L16 21 18 21C18.3 21 18.5 21.2 18.5 21.5L18.5 22.5C18.5 22.8 18.3 23 18 23zM17 30C16.9 30 16.8 30 16.8 29.9 16.6 29.8 16.5 29.5 16.6 29.2L22.6 17.2C22.7 17 23 16.9 23.3 17 23.5 17.1 23.6 17.4 23.5 17.7L17.5 29.7C17.4 29.9 17.2 30 17 30zM22 30C21.9 30 21.8 30 21.7 29.9 21.5 29.8 21.4 29.5 21.5 29.2L24 25 22 25C21.7 25 21.5 24.8 21.5 24.5 21.5 24.2 21.7 24 22 24L25 24C25.2 24 25.3 24.1 25.4 24.3 25.5 24.5 25.5 24.6 25.4 24.8L22.4 29.8C22.3 29.9 22.2 30 22 30zM14 23L11 23C10.8 23 10.6 22.9 10.5 22.7 10.4 22.5 10.5 22.3 10.6 22.2L13 19.8C13.3 19.5 13.4 19.1 13.4 18.7L13.4 18.5C13.4 18.2 13.2 18 12.9 18L11.9 18C11.6 18 11.4 18.2 11.4 18.5 11.4 18.8 11.3 19 11 19 10.7 19 10.5 18.8 10.5 18.5 10.5 17.7 11.2 17 12 17L13 17C13.8 17 14.5 17.7 14.5 18.5L14.5 18.7C14.5 19.4 14.2 20 13.8 20.5L12.2 22 14 22C14.3 22 14.5 22.2 14.5 22.5 14.5 22.8 14.3 23 14 23z"/>
    <path d="M15,29 C7,29 0.5,22.5 0.5,14.5 C0.5,6.5 7,0 15,0 C23,0 29.5,6.5 29.5,14.5 C29.5,17.8 28.4,20.9 26.4,23.5 C26.2,23.7 25.9,23.8 25.7,23.6 C25.5,23.4 25.4,23.1 25.6,22.9 C27.5,20.5 28.5,17.6 28.5,14.5 C28.5,7.1 22.4,1 15,1 C7.6,1 1.5,7.1 1.5,14.5 C1.5,21.9 7.6,28 15,28 C15.3,28 15.5,28.2 15.5,28.5 C15.5,28.8 15.3,29 15,29 Z"/>
  </g>
</svg>
