<svg xmlns="http://www.w3.org/2000/svg" width="30" height="30" viewBox="0 0 30 30">
  <path fill="#9FACBD" d="M9.854,19.147 C9.808,19.101 9.752,19.064 9.691,19.039 C9.656,19.025 9.618,19.023 9.582,19.017 C9.554,19.012 9.529,19 9.5,19 C9.462,19 9.428,19.014 9.392,19.022 C9.365,19.028 9.337,19.028 9.311,19.038 C9.248,19.064 9.191,19.102 9.144,19.149 L7.147,21.146 C6.952,21.341 6.952,21.658 7.147,21.853 C7.342,22.048 7.659,22.048 7.854,21.853 L9,20.708 L9,24.5 C9,24.776 9.224,25 9.5,25 C9.776,25 10,24.776 10,24.5 L10,20.708 L11.146,21.854 C11.244,21.951 11.372,22 11.5,22 C11.628,22 11.756,21.951 11.854,21.854 C12.049,21.659 12.049,21.342 11.854,21.147 L9.854,19.147 C9.854,19.147 9.854,19.147 9.854,19.147 Z M15.4,28.739 L15,28.847 L15,1.163 L28,4.877 L28,20.5 C28,20.776 28.224,21 28.5,21 C28.776,21 29,20.776 29,20.5 L29,4.5 C29,4.277 28.852,4.081 28.637,4.019 L14.637,0.019 C14.623,0.015 14.608,0.022 14.594,0.019 C14.563,0.013 14.533,0 14.5,0 C14.467,0 14.437,0.013 14.406,0.019 C14.392,0.022 14.377,0.015 14.363,0.019 L0.363,4.019 C0.148,4.081 0,4.277 0,4.5 L0,25.5 C0,25.723 0.148,25.919 0.363,25.981 L14.363,29.981 C14.408,29.994 14.454,30 14.5,30 C14.544,30 14.588,29.994 14.63,29.983 L15.66,29.705 C15.927,29.633 16.085,29.359 16.013,29.092 C15.941,28.824 15.665,28.669 15.4,28.739 Z M5,3.734 L8.999,2.591 L8.999,14.292 L8.499,14.792 L7.353,13.646 C7.158,13.451 6.841,13.451 6.646,13.646 L5.5,14.793 L5,14.293 L5,3.734 Z M14,28.837 L1,25.123 L1,4.877 L4,4.02 L4,14.5 C4,14.633 4.053,14.76 4.147,14.853 L5.147,15.853 C5.342,16.048 5.659,16.048 5.854,15.853 L7,14.707 L8.146,15.854 C8.244,15.951 8.372,16 8.5,16 C8.628,16 8.756,15.951 8.853,15.854 L9.853,14.854 C9.946,14.76 9.999,14.633 9.999,14.5 L9.999,2.306 L14,1.163 L14,28.837 Z M25,22.5 C25,22.224 24.776,22 24.5,22 C24.224,22 24,22.224 24,22.5 L24,24.5 C24,24.776 24.224,25 24.5,25 L26.5,25 C26.776,25 27,24.776 27,24.5 C27,24.224 26.776,24 26.5,24 L25,24 L25,22.5 Z M29.854,24.146 L25.854,20.146 C25.76,20.053 25.633,20 25.5,20 L17.5,20 C17.224,20 17,20.224 17,20.5 L17,28.5 C17,28.776 17.224,29 17.5,29 L19.092,29 C19.299,29.581 19.849,30 20.5,30 C21.151,30 21.701,29.581 21.908,29 L25.092,29 C25.299,29.581 25.849,30 26.5,30 C27.151,30 27.701,29.581 27.908,29 L29.5,29 C29.776,29 30,28.776 30,28.5 L30,24.5 C30,24.367 29.947,24.24 29.854,24.146 Z M20.5,29 C20.224,29 20,28.776 20,28.5 C20,28.224 20.224,28 20.5,28 C20.776,28 21,28.224 21,28.5 C21,28.776 20.776,29 20.5,29 Z M26.5,29 C26.224,29 26,28.776 26,28.5 C26,28.224 26.224,28 26.5,28 C26.776,28 27,28.224 27,28.5 C27,28.776 26.776,29 26.5,29 Z M29,28 L27.908,28 C27.701,27.419 27.151,27 26.5,27 C25.849,27 25.299,27.419 25.092,28 L21.908,28 C21.701,27.419 21.151,27 20.5,27 C19.849,27 19.299,27.419 19.092,28 L18,28 L18,21 L25.293,21 L29,24.707 L29,28 Z"/>
</svg>
