<svg xmlns="http://www.w3.org/2000/svg" width="30" height="30" viewBox="0 0 30 30">
  <g fill="#9FACBD">
    <path d="M2.5,30 C2.2,30 2,29.8 2,29.5 L2,0.5 C2,0.2 2.2,0 2.5,0 C2.8,0 3,0.2 3,0.5 L3,29.5 C3,29.8 2.8,30 2.5,30 Z"/>
    <path d="M29.5 28L.5 28C.2 28 0 27.8 0 27.5 0 27.2.2 27 .5 27L29.5 27C29.8 27 30 27.2 30 27.5 30 27.8 29.8 28 29.5 28zM9.5 25C9.2 25 9 24.8 9 24.5L9 23.5C9 23.2 9.2 23 9.5 23 9.8 23 10 23.2 10 23.5L10 24.5C10 24.8 9.8 25 9.5 25zM17.5 25C17.2 25 17 24.8 17 24.5L17 15.5C17 15.2 17.2 15 17.5 15 17.8 15 18 15.2 18 15.5L18 24.5C18 24.8 17.8 25 17.5 25zM26.5 25C26.2 25 26 24.8 26 24.5L26 11C26 10.7 26.2 10.5 26.5 10.5 26.8 10.5 27 10.7 27 11L27 24.5C27 24.8 26.8 25 26.5 25zM9 21C7.3 21 6 19.7 6 18 6 16.3 7.3 15 9 15 10.7 15 12 16.3 12 18 12 19.7 10.7 21 9 21zM9 16C7.9 16 7 16.9 7 18 7 19.1 7.9 20 9 20 10.1 20 11 19.1 11 18 11 16.9 10.1 16 9 16zM17 13C15.3 13 14 11.7 14 10 14 8.3 15.3 7 17 7 18.7 7 20 8.3 20 10 20 11.7 18.7 13 17 13zM17 8C15.9 8 15 8.9 15 10 15 11.1 15.9 12 17 12 18.1 12 19 11.1 19 10 19 8.9 18.1 8 17 8zM26 8C24.3 8 23 6.7 23 5 23 3.3 24.3 2 26 2 27.7 2 29 3.3 29 5 29 6.7 27.7 8 26 8zM26 3C24.9 3 24 3.9 24 5 24 6.1 24.9 7 26 7 27.1 7 28 6.1 28 5 28 3.9 27.1 3 26 3z"/>
    <path d="M11 16.5C10.9 16.5 10.7 16.5 10.6 16.4 10.4 16.2 10.4 15.9 10.6 15.7L14.6 11.7C14.8 11.5 15.1 11.5 15.3 11.7 15.5 11.9 15.5 12.2 15.3 12.4L11.3 16.4C11.3 16.5 11.1 16.5 11 16.5zM19.5 9.5C19.3 9.5 19.2 9.4 19.1 9.3 18.9 9 19 8.7 19.2 8.6L23.2 6.1C23.4 6 23.7 6 23.9 6.3 24 6.5 24 6.8 23.7 7L19.7 9.5C19.7 9.5 19.6 9.5 19.5 9.5z"/>
  </g>
</svg>
