<?xml version="1.0" encoding="UTF-8" standalone="no"?>
<svg
   xmlns:dc="http://purl.org/dc/elements/1.1/"
   xmlns:cc="http://creativecommons.org/ns#"
   xmlns:rdf="http://www.w3.org/1999/02/22-rdf-syntax-ns#"
   xmlns:svg="http://www.w3.org/2000/svg"
   xmlns="http://www.w3.org/2000/svg"
   id="svg10"
   version="1.1"
   viewBox="0 0 30 30"
   height="30"
   width="30">
  <g
     transform="translate(0,5)"
     style="fill:#9facbd"
     id="g8">
    <path
       id="path2"
       d="M 27,20 H 3 C 1.3,20 0,18.7 0,17 V 3 C 0,1.3 1.3,0 3,0 h 24 c 1.7,0 3,1.3 3,3 v 14 c 0,1.7 -1.3,3 -3,3 z M 3,1 C 1.9,1 1,1.9 1,3 v 14 c 0,1.1 0.9,2 2,2 h 24 c 1.1,0 2,-0.9 2,-2 V 3 C 29,1.9 28.1,1 27,1 Z" />
    <path
       id="path4"
       d="m 9.5,13 h -5 C 4.2,13 4,12.8 4,12.5 4,12.2 4.2,12 4.5,12 h 5 C 9.8,12 10,12.2 10,12.5 10,12.8 9.8,13 9.5,13 Z m 6,3 H 4.5 C 4.2,16 4,15.8 4,15.5 4,15.2 4.2,15 4.5,15 h 11 c 0.3,0 0.5,0.2 0.5,0.5 0,0.3 -0.2,0.5 -0.5,0.5 z m -9,-6 h -2 C 4.2,10 4,9.8 4,9.5 4,9.2 4.2,9 4.5,9 h 2 C 6.8,9 7,9.2 7,9.5 7,9.8 6.8,10 6.5,10 Z m 5,0 h -2 C 9.2,10 9,9.8 9,9.5 9,9.2 9.2,9 9.5,9 h 2 C 11.8,9 12,9.2 12,9.5 12,9.8 11.8,10 11.5,10 Z m 5,0 h -2 C 14.2,10 14,9.8 14,9.5 14,9.2 14.2,9 14.5,9 h 2 C 16.8,9 17,9.2 17,9.5 17,9.8 16.8,10 16.5,10 Z m 7,6 C 22.1,16 21,14.9 21,13.5 21,12.1 22.1,11 23.5,11 c 1.4,0 2.5,1.1 2.5,2.5 0,1.4 -1.1,2.5 -2.5,2.5 z m 0,-4 C 22.7,12 22,12.7 22,13.5 22,14.3 22.7,15 23.5,15 24.3,15 25,14.3 25,13.5 25,12.7 24.3,12 23.5,12 Z" />
    <path
       id="path6"
       d="M 21.5,16 C 20.1,16 19,14.9 19,13.5 19,12.1 20.1,11 21.5,11 c 0.4,0 0.8,0.1 1.2,0.3 0.2,0.1 0.3,0.4 0.2,0.7 -0.1,0.2 -0.4,0.3 -0.7,0.2 C 22,12.1 21.8,12 21.5,12 20.7,12 20,12.7 20,13.5 c 0,0.8 0.7,1.5 1.5,1.5 0.2,0 0.5,-0.1 0.7,-0.2 0.2,-0.1 0.5,0 0.7,0.2 0.1,0.2 0,0.5 -0.2,0.7 -0.4,0.2 -0.8,0.3 -1.2,0.3 z" />
  </g>
</svg>
