<svg xmlns="http://www.w3.org/2000/svg" width="30" height="30" viewBox="0 0 30 30">
  <g fill="#9FACBD">
    <path d="M15,29.5 C7,29.5 0.5,23 0.5,15 C0.5,7 7,0.5 15,0.5 C23,0.5 29.5,7 29.5,15 C29.5,23 23,29.5 15,29.5 Z M15,1.5 C7.6,1.5 1.5,7.6 1.5,15 C1.5,22.4 7.6,28.5 15,28.5 C22.4,28.5 28.5,22.4 28.5,15 C28.5,7.6 22.4,1.5 15,1.5 Z"/>
    <path d="M22,15.5 L15,15.5 C14.7,15.5 14.5,15.3 14.5,15 L14.5,5 C14.5,4.7 14.7,4.5 15,4.5 C15.3,4.5 15.5,4.7 15.5,5 L15.5,14.5 L22,14.5 C22.3,14.5 22.5,14.7 22.5,15 C22.5,15.3 22.3,15.5 22,15.5 Z"/>
  </g>
</svg>
