<?xml version="1.0" encoding="UTF-8" standalone="no"?>
<svg
   xmlns:dc="http://purl.org/dc/elements/1.1/"
   xmlns:cc="http://creativecommons.org/ns#"
   xmlns:rdf="http://www.w3.org/1999/02/22-rdf-syntax-ns#"
   xmlns:svg="http://www.w3.org/2000/svg"
   xmlns="http://www.w3.org/2000/svg"
   xmlns:sodipodi="http://sodipodi.sourceforge.net/DTD/sodipodi-0.dtd"
   xmlns:inkscape="http://www.inkscape.org/namespaces/inkscape"
   width="30"
   height="30"
   viewBox="0 0 30 30"
   version="1.1"
   id="svg4"
   sodipodi:docname="icon-world.svg"
   inkscape:version="0.92.0 r15299">
  <metadata
     id="metadata10">
    <rdf:RDF>
      <cc:Work
         rdf:about="">
        <dc:format>image/svg+xml</dc:format>
        <dc:type
           rdf:resource="http://purl.org/dc/dcmitype/StillImage" />
        <dc:title></dc:title>
      </cc:Work>
    </rdf:RDF>
  </metadata>
  <defs
     id="defs8" />
  <sodipodi:namedview
     pagecolor="#ffffff"
     bordercolor="#666666"
     borderopacity="1"
     objecttolerance="10"
     gridtolerance="10"
     guidetolerance="10"
     inkscape:pageopacity="0"
     inkscape:pageshadow="2"
     inkscape:window-width="1715"
     inkscape:window-height="1015"
     id="namedview6"
     showgrid="false"
     inkscape:zoom="7.8666667"
     inkscape:cx="11"
     inkscape:cy="15"
     inkscape:window-x="0"
     inkscape:window-y="0"
     inkscape:window-maximized="0"
     inkscape:current-layer="svg4" />
  <path
     d="m 10.123888,15.364 c 1.755,1.754 4.059,2.631 6.364,2.631 2.305,0 4.61,-0.877 6.364,-2.631 3.509,-3.509 3.509,-9.219 0,-12.728 -3.508,-3.508 -9.216,-3.508 -12.725,-0.002 -10e-4,10e-4 -0.003,10e-4 -0.004,0.002 -10e-4,10e-4 -0.002,0.003 -0.003,0.004 -3.5049995,3.51 -3.5039995,9.216 0.004,12.724 z m 0.707,-0.708 c -0.489,-0.489 -0.8919995,-1.03 -1.2269995,-1.6 l 1.6769995,-1.677 c 0.393,0.515 0.83,1.021 1.318,1.509 0.75,0.749 1.542,1.376 2.343,1.9 l -1.572,1.572 c -0.923,-0.388 -1.788,-0.954 -2.539,-1.704 z m 7.424,-3.181 -2.584,2.584 c -0.815,-0.504 -1.619,-1.133 -2.365,-1.879 -0.487,-0.487 -0.919,-1 -1.304,-1.523 l 2.718,-2.717 z m -2.828,-4.242 2.725,-2.724 c 0.524,0.39 1.034,0.824 1.518,1.308 0.74,0.74 1.373,1.539 1.885,2.359 l -2.593,2.593 z m -1.001,9.486 1.402,-1.402 c 1.221,0.661 2.436,1.047 3.553,1.135 -1.585,0.613 -3.324,0.7 -4.955,0.267 z m 2.155,-2.155 2.382,-2.382 2.788,2.788 c -1.213,0.796 -3.169,0.593 -5.17,-0.406 z m 5.877,-0.3 -2.789,-2.789 2.394,-2.394 c 0.3,0.598 0.537,1.2 0.69,1.794 0.361,1.388 0.251,2.567 -0.295,3.389 z m 1.488,-2.388 c -0.091,-1.112 -0.478,-2.325 -1.137,-3.541 l 1.399,-1.399 c 0.431,1.627 0.345,3.36 -0.262,4.94 z m -1.801,-8.534 c 0.751,0.751 1.316,1.616 1.705,2.539 l -1.569,1.569 c -0.523,-0.801 -1.155,-1.591 -1.904,-2.339 -0.488,-0.488 -0.994,-0.925 -1.509,-1.318 l 1.678,-1.678 c 0.57,0.336 1.11,0.738 1.599,1.227 z m -5.657,-2.339 c 1.064,0 2.126,0.215 3.121,0.635 l -1.57,1.57 c -1.505,-0.983 -3.045,-1.554 -4.428,-1.667 0.924,-0.355 1.9,-0.538 2.877,-0.538 z m -3.399,1.52 c 0.47,0 0.982,0.07 1.523,0.21 0.896,0.232 1.811,0.644 2.702,1.2 l -2.594,2.593 -3.496,-3.496 c 0.501,-0.332 1.131,-0.507 1.865,-0.507 z m -2.573,1.213 3.497,3.497 -2.585,2.585 c -1.424,-2.302 -1.8269995,-4.685 -0.912,-6.082 z m 0.18,6.814 -1.5689995,1.569 c -0.807,-1.91 -0.839,-4.068 -0.097,-5.999 0.112,1.384 0.683,2.925 1.6659995,4.43 z m 6.076,11.45 c 3.426,0 6.647,-1.337 9.069,-3.764 0.195,-0.195 0.195,-0.511 0,-0.706 l -0.704,-0.706 c -0.195,-0.196 -0.512,-0.195 -0.707,-0.001 -0.196,0.195 -0.196,0.512 -10e-4,0.707 l 0.345,0.345 c -2.189,2.019 -5.011,3.125 -8.003,3.125 -3.158,0 -6.128,-1.233 -8.3619995,-3.471 -4.447,-4.456 -4.524,-11.671 -0.259,-16.313 l 0.255,0.255 c 0.195,0.196 0.512,0.195 0.707,10e-4 0.196,-0.195 0.196,-0.512 0.001,-0.707 l -0.616,-0.618 c -0.094,-0.094 -0.221,-0.147 -0.354,-0.147 -0.133,0 -0.26,0.053 -0.354,0.147 -5,5.011 -5.04,13.125 -0.087,18.088 1.752,1.755 3.9239995,2.931 6.2859995,3.453 V 25 h -2.3 c -2.5919995,0 -4.6999995,2.019 -4.6999995,4.5 0,0.276 0.224,0.5 0.5,0.5 H 21.487888 c 0.276,0 0.5,-0.224 0.5,-0.5 0,-2.481 -2.108,-4.5 -4.7,-4.5 h -2.3 v -3.138 c 0.587,0.082 1.181,0.138 1.784,0.138 z m 0.516,4 c 1.861,0 3.406,1.306 3.663,3 H 8.0258885 c 0.257,-1.694 1.801,-3 3.6619995,-3 z"
     id="path2"
     inkscape:connector-curvature="0"
     style="fill:#9facbd" />
</svg>
