<?xml version="1.0" encoding="UTF-8" standalone="no"?>
<svg
   xmlns:dc="http://purl.org/dc/elements/1.1/"
   xmlns:cc="http://creativecommons.org/ns#"
   xmlns:rdf="http://www.w3.org/1999/02/22-rdf-syntax-ns#"
   xmlns:svg="http://www.w3.org/2000/svg"
   xmlns="http://www.w3.org/2000/svg"
   xmlns:sodipodi="http://sodipodi.sourceforge.net/DTD/sodipodi-0.dtd"
   xmlns:inkscape="http://www.inkscape.org/namespaces/inkscape"
   width="30"
   height="30"
   viewBox="0 0 30 30"
   version="1.1"
   id="svg10"
   sodipodi:docname="icon-online-store.svg"
   inkscape:version="0.92.0 r15299">
  <metadata
     id="metadata16">
    <rdf:RDF>
      <cc:Work
         rdf:about="">
        <dc:format>image/svg+xml</dc:format>
        <dc:type
           rdf:resource="http://purl.org/dc/dcmitype/StillImage" />
        <dc:title></dc:title>
      </cc:Work>
    </rdf:RDF>
  </metadata>
  <defs
     id="defs14" />
  <sodipodi:namedview
     pagecolor="#ffffff"
     bordercolor="#666666"
     borderopacity="1"
     objecttolerance="10"
     gridtolerance="10"
     guidetolerance="10"
     inkscape:pageopacity="0"
     inkscape:pageshadow="2"
     inkscape:window-width="1714"
     inkscape:window-height="1058"
     id="namedview12"
     showgrid="false"
     inkscape:zoom="9.5666667"
     inkscape:cx="15"
     inkscape:cy="12"
     inkscape:window-x="0"
     inkscape:window-y="0"
     inkscape:window-maximized="0"
     inkscape:current-layer="svg10" />
  <g
     id="g8"
     style="fill:#9facbd"
     transform="translate(0,3.0008652)">
    <path
       d="M 29,9.5 H 1 C 0.7,9.5 0.5,9.3 0.5,9 0.5,8.7 0.7,8.5 1,8.5 h 28 c 0.3,0 0.5,0.2 0.5,0.5 0,0.3 -0.2,0.5 -0.5,0.5 z"
       id="path2"
       inkscape:connector-curvature="0" />
    <path
       d="m 21.496598,23.5375 h -13.6 c -1.3000001,0 -2.5,-1 -2.9000001,-2.4 l -3.5,-12 c -0.1,-0.3 0.1000001,-0.5 0.3,-0.6 0.3000001,-0.1 0.5000001,0.1 0.6000001,0.3 l 3.5,12 c 0.2999999,0.9 1.0999999,1.6 1.8999999,1.6 H 21.396598 c 0.9,0 1.8,-0.7 2,-1.6 l 3.5,-12 c 0.1,-0.3 0.4,-0.4 0.6,-0.3 0.3,0.1 0.4,0.4 0.3,0.6 l -3.5,12 c -0.2,1.4 -1.5,2.4 -2.8,2.4 z"
       id="path4"
       inkscape:connector-curvature="0" />
    <path
       d="M 9,9.5 C 8.9,9.5 8.8,9.5 8.7,9.4 8.5,9.3 8.4,8.9 8.5,8.7 l 5,-8 C 13.6,0.5 14,0.4 14.2,0.5 14.4,0.6 14.5,1 14.4,1.2 l -5,8 C 9.3,9.4 9.2,9.5 9,9.5 Z m 13,0 c -0.2,0 -0.3,-0.1 -0.4,-0.2 l -6,-8 C 15.4,1.1 15.5,0.8 15.7,0.6 15.9,0.4 16.2,0.5 16.4,0.7 l 6,8 c 0.2,0.2 0.1,0.5 -0.1,0.7 -0.1,0.1 -0.2,0.1 -0.3,0.1 z m -7,12 c -0.3,0 -0.5,-0.2 -0.5,-0.5 V 11 c 0,-0.3 0.2,-0.5 0.5,-0.5 0.3,0 0.5,0.2 0.5,0.5 v 10 c 0,0.3 -0.2,0.5 -0.5,0.5 z m 3,0 c 0,0 -0.1,0 0,0 -0.4,-0.1 -0.5,-0.3 -0.5,-0.6 l 2,-10 c 0.1,-0.3 0.3,-0.4 0.6,-0.4 0.3,0.1 0.4,0.3 0.4,0.6 l -2,10 c -0.1,0.2 -0.3,0.4 -0.5,0.4 z m -6,0 c -0.2,0 -0.4,-0.2 -0.5,-0.4 l -2,-10 c -0.1,-0.3 0.1,-0.5 0.4,-0.6 0.3,-0.1 0.5,0.1 0.6,0.4 l 2,10 c 0,0.3 -0.1,0.5 -0.5,0.6 0.1,0 0,0 0,0 z m 9,0 c 0,0 -0.1,0 -0.1,0 -0.3,-0.1 -0.4,-0.4 -0.3,-0.6 l 3,-10 c 0.1,-0.3 0.4,-0.4 0.6,-0.3 0.3,0.1 0.4,0.4 0.3,0.6 l -3,10 c -0.1,0.2 -0.3,0.3 -0.5,0.3 z m -12,0 c -0.2,0 -0.4,-0.1 -0.5,-0.4 l -3,-10 c -0.1,-0.3 0.1,-0.5 0.3,-0.6 0.3,-0.1 0.5,0.1 0.6,0.3 l 3,10 c 0.1,0.3 -0.1,0.5 -0.3,0.6 0,0.1 -0.1,0.1 -0.1,0.1 z"
       id="path6"
       inkscape:connector-curvature="0" />
  </g>
</svg>
