<?xml version="1.0" encoding="UTF-8" standalone="no"?>
<svg
   xmlns:dc="http://purl.org/dc/elements/1.1/"
   xmlns:cc="http://creativecommons.org/ns#"
   xmlns:rdf="http://www.w3.org/1999/02/22-rdf-syntax-ns#"
   xmlns:svg="http://www.w3.org/2000/svg"
   xmlns="http://www.w3.org/2000/svg"
   id="svg14"
   version="1.1"
   viewBox="0 0 30 30"
   height="30"
   width="30">
  <metadata
     id="metadata20">
    <rdf:RDF>
      <cc:Work
         rdf:about="">
        <dc:format>image/svg+xml</dc:format>
        <dc:type
           rdf:resource="http://purl.org/dc/dcmitype/StillImage" />
        <dc:title></dc:title>
      </cc:Work>
    </rdf:RDF>
  </metadata>
  <defs
     id="defs18" />
  <g
     transform="translate(3)"
     style="fill:#9facbd"
     id="g12">
    <path
       id="path2"
       d="M 15.1,30 H 4.9 C 2.5,30 0.5,28.1 0.5,25.7 V 4.3 C 0.5,1.9 2.5,0 4.9,0 h 10.3 c 2.4,0 4.4,1.9 4.4,4.3 V 6.5 C 19.5,6.8 19.3,7 19,7 18.7,7 18.5,6.8 18.5,6.5 V 4.3 C 18.5,2.5 17,1 15.1,1 H 4.9 C 3,1 1.5,2.5 1.5,4.3 V 23 H 19 c 0.3,0 0.5,0.2 0.5,0.5 v 2.2 c 0,2.4 -2,4.3 -4.4,4.3 z M 1.5,24 v 1.7 C 1.5,27.5 3,29 4.9,29 h 10.3 c 1.9,0 3.4,-1.5 3.4,-3.3 V 24 Z" />
    <path
       id="path4"
       d="M 18.6,6 H 1 C 0.7,6 0.5,5.8 0.5,5.5 0.5,5.2 0.7,5 1,5 h 17.6 c 0.3,0 0.5,0.2 0.5,0.5 0,0.3 -0.2,0.5 -0.5,0.5 z" />
    <circle
       id="circle6"
       r="1"
       cy="26"
       cx="9.5" />
    <path
       id="path8"
       d="M 11,3 H 8 C 7.7,3 7.5,2.8 7.5,2.5 7.5,2.2 7.7,2 8,2 h 3 c 0.3,0 0.5,0.2 0.5,0.5 C 11.5,2.8 11.3,3 11,3 Z m 4,0 C 14.7,3 14.5,2.8 14.5,2.5 14.5,2.2 14.7,2 15,2 15.3,2 15.5,2.2 15.5,2.5 15.5,2.8 15.3,3 15,3 Z m -3,16 c -0.2,0 -0.4,-0.1 -0.5,-0.4 L 8.6,8 H 7 C 6.7,8 6.5,7.8 6.5,7.5 6.5,7.2 6.7,7 7,7 h 2 c 0.2,0 0.4,0.2 0.5,0.4 l 3,11 c 0.1,0.3 -0.1,0.5 -0.4,0.6 0,0 -0.1,0 -0.1,0 z" />
    <path
       id="path10"
       d="m 11.3,15.9 c -0.3,0 -0.5,-0.2 -0.5,-0.4 0,-0.3 0.2,-0.5 0.4,-0.5 l 10.6,-1.1 0.6,-3.8 H 10 C 9.7,10.1 9.5,9.9 9.5,9.6 9.5,9.3 9.7,9 10,9 h 13 c 0.1,0 0.3,0.1 0.4,0.2 0.1,0.1 0.1,0.3 0.1,0.4 l -0.7,4.8 c 0,0.2 -0.2,0.4 -0.4,0.4 l -11.1,1.1 c 0.1,0 0.1,0 0,0 z M 14,21 c -0.8,0 -1.5,-0.7 -1.5,-1.5 0,-0.8 0.7,-1.5 1.5,-1.5 0.8,0 1.5,0.7 1.5,1.5 0,0.8 -0.7,1.5 -1.5,1.5 z m 0,-2 c -0.3,0 -0.5,0.2 -0.5,0.5 0,0.3 0.2,0.5 0.5,0.5 0.3,0 0.5,-0.2 0.5,-0.5 C 14.5,19.2 14.3,19 14,19 Z m 5,2 c -0.8,0 -1.5,-0.7 -1.5,-1.5 0,-0.8 0.7,-1.5 1.5,-1.5 0.8,0 1.5,0.7 1.5,1.5 0,0.8 -0.7,1.5 -1.5,1.5 z m 0,-2 c -0.3,0 -0.5,0.2 -0.5,0.5 0,0.3 0.2,0.5 0.5,0.5 0.3,0 0.5,-0.2 0.5,-0.5 C 19.5,19.2 19.3,19 19,19 Z" />
  </g>
</svg>
